<svg xmlns="http://www.w3.org/2000/svg" xmlns:xlink="http://www.w3.org/1999/xlink" width="500" zoomAndPan="magnify" viewBox="0 0 375 374.999991" height="500" preserveAspectRatio="xMidYMid meet" version="1.0"><defs><g/><clipPath id="6e27824ed9"><path d="M 144.679688 104.324219 L 177 104.324219 L 177 195 L 144.679688 195 Z M 144.679688 104.324219 " clip-rule="nonzero"/></clipPath><clipPath id="c12069daec"><path d="M 181 121 L 214 121 L 214 212.304688 L 181 212.304688 Z M 181 121 " clip-rule="nonzero"/></clipPath><clipPath id="306d7d996b"><path d="M 224 107 L 230.699219 107 L 230.699219 114 L 224 114 Z M 224 107 " clip-rule="nonzero"/></clipPath></defs><g clip-path="url(#6e27824ed9)"><path fill="#393536" d="M 144.710938 155.09375 L 144.710938 143.824219 C 146.996094 143.699219 148.71875 143.355469 149.875 142.789062 C 151.035156 142.226562 152.035156 141.28125 152.882812 139.949219 C 153.726562 138.617188 154.304688 136.953125 154.621094 134.945312 C 154.867188 133.445312 154.996094 130.828125 154.996094 127.105469 C 154.996094 121.03125 155.277344 116.792969 155.839844 114.398438 C 156.402344 112.003906 157.421875 110.078125 158.894531 108.625 C 160.363281 107.167969 162.507812 106.015625 165.328125 105.171875 C 167.238281 104.609375 170.242188 104.328125 174.34375 104.328125 L 176.832031 104.328125 L 176.832031 115.550781 C 173.359375 115.550781 171.128906 115.746094 170.140625 116.136719 C 169.15625 116.53125 168.425781 117.125 167.957031 117.921875 C 167.488281 118.71875 167.253906 120.089844 167.253906 122.03125 C 167.253906 124.003906 167.113281 127.746094 166.828125 133.257812 C 166.671875 136.355469 166.265625 138.867188 165.609375 140.792969 C 164.949219 142.71875 164.113281 144.308594 163.097656 145.5625 C 162.078125 146.8125 160.519531 148.113281 158.421875 149.460938 C 160.269531 150.523438 161.78125 151.769531 162.957031 153.191406 C 164.128906 154.617188 165.027344 156.347656 165.65625 158.382812 C 166.28125 160.417969 166.6875 163.140625 166.875 166.554688 C 167.09375 171.75 167.207031 175.070312 167.207031 176.511719 C 167.207031 178.578125 167.457031 180.015625 167.957031 180.832031 C 168.457031 181.644531 169.21875 182.265625 170.234375 182.6875 C 171.25 183.109375 173.453125 183.320312 176.832031 183.320312 L 176.832031 194.59375 L 174.34375 194.59375 C 170.117188 194.59375 166.875 194.253906 164.621094 193.582031 C 162.367188 192.910156 160.464844 191.789062 158.917969 190.222656 C 157.367188 188.660156 156.324219 186.726562 155.792969 184.425781 C 155.261719 182.121094 154.996094 178.5 154.996094 173.550781 C 154.996094 167.792969 154.742188 164.050781 154.242188 162.328125 C 153.554688 159.824219 152.511719 158.03125 151.121094 156.949219 C 149.726562 155.871094 147.589844 155.25 144.710938 155.09375 " fill-opacity="1" fill-rule="nonzero"/></g><path fill="#0097b2" d="M 215.960938 127.710938 L 208.609375 127.710938 L 208.609375 120.359375 L 215.960938 120.359375 L 215.960938 127.710938 " fill-opacity="1" fill-rule="nonzero"/><path fill="#0097b2" d="M 214.226562 142.410156 L 208.609375 142.410156 L 208.609375 136.792969 L 214.226562 136.792969 L 214.226562 142.410156 " fill-opacity="1" fill-rule="nonzero"/><g clip-path="url(#c12069daec)"><path fill="#0097b2" d="M 192.839844 133.324219 L 192.839844 127.710938 L 198.457031 127.710938 L 198.457031 133.324219 Z M 207.125 159.582031 C 205.714844 158.503906 204.667969 156.710938 203.980469 154.207031 C 203.601562 152.792969 203.375 150.085938 203.300781 146.085938 L 198.457031 146.085938 L 198.457031 138.734375 L 203.195312 138.734375 C 203.078125 135.898438 202.828125 133.691406 202.453125 132.109375 C 201.90625 129.808594 200.863281 127.867188 199.328125 126.285156 C 197.796875 124.707031 195.902344 123.585938 193.648438 122.925781 C 191.390625 122.269531 188.152344 121.941406 183.925781 121.941406 L 181.4375 121.941406 L 181.4375 133.164062 C 184.972656 133.164062 187.25 133.375 188.269531 133.800781 C 189.285156 134.222656 189.992188 134.824219 190.382812 135.609375 C 190.773438 136.390625 190.984375 137.957031 191.015625 140.304688 C 191.171875 147.753906 191.421875 152.578125 191.769531 154.769531 C 192.300781 157.964844 193.300781 160.59375 194.773438 162.660156 C 195.839844 164.101562 197.527344 165.570312 199.847656 167.074219 C 198.0625 168.105469 196.597656 169.304688 195.453125 170.667969 C 194.3125 172.027344 193.394531 173.6875 192.707031 175.644531 C 192.019531 177.601562 191.597656 180.207031 191.4375 183.464844 C 191.1875 188.851562 191.054688 192.496094 191.039062 194.40625 C 191.023438 196.316406 190.773438 197.671875 190.289062 198.46875 C 189.804688 199.269531 189.042969 199.878906 188.011719 200.300781 C 186.976562 200.726562 184.785156 200.9375 181.4375 200.9375 L 181.4375 212.207031 L 183.925781 212.207031 C 188.027344 212.207031 191.03125 211.925781 192.941406 211.363281 C 195.792969 210.515625 197.949219 209.367188 199.425781 207.910156 C 200.894531 206.453125 201.90625 204.519531 202.453125 202.109375 C 203 199.699219 203.273438 195.457031 203.273438 189.382812 C 203.273438 185.6875 203.398438 183.089844 203.648438 181.585938 C 203.996094 179.582031 204.582031 177.914062 205.410156 176.585938 C 206.242188 175.253906 207.234375 174.308594 208.394531 173.742188 C 209.550781 173.179688 211.273438 172.835938 213.558594 172.710938 L 213.558594 161.4375 C 210.679688 161.28125 208.535156 160.664062 207.125 159.582031 " fill-opacity="1" fill-rule="nonzero"/></g><g clip-path="url(#306d7d996b)"><path fill="#0097b2" d="M 230.292969 113.433594 L 224.675781 113.433594 L 224.675781 107.816406 L 230.292969 107.816406 L 230.292969 113.433594 " fill-opacity="1" fill-rule="nonzero"/></g><path fill="#0097b2" d="M 202.132812 120.359375 L 191.648438 120.359375 L 191.648438 109.875 L 202.132812 109.875 L 202.132812 120.359375 " fill-opacity="1" fill-rule="nonzero"/><g fill="#393536" fill-opacity="1"><g transform="translate(32.708968, 259.695874)"><g><path d="M 10.03125 -24.96875 L 13.4375 -24.96875 L 23.09375 0 L 17.46875 0 L 15.96875 -4.140625 L 7.5 -4.140625 L 6.046875 0 L 0.359375 0 Z M 14.3125 -8.75 L 11.75 -15.96875 L 9.15625 -8.75 Z M 14.3125 -8.75 "/></g></g></g><g fill="#393536" fill-opacity="1"><g transform="translate(63.016464, 259.695874)"><g><path d="M 12.5625 0.515625 C 11.09375 0.515625 9.75 0.257812 8.53125 -0.25 C 7.3125 -0.769531 6.257812 -1.484375 5.375 -2.390625 C 4.5 -3.304688 3.8125 -4.40625 3.3125 -5.6875 C 2.8125 -6.96875 2.5625 -8.367188 2.5625 -9.890625 L 2.5625 -24.53125 L 7.90625 -24.53125 L 7.90625 -9.953125 C 7.90625 -8.316406 8.328125 -7.03125 9.171875 -6.09375 C 10.015625 -5.15625 11.128906 -4.6875 12.515625 -4.6875 C 13.910156 -4.6875 15.035156 -5.15625 15.890625 -6.09375 C 16.742188 -7.03125 17.171875 -8.316406 17.171875 -9.953125 L 17.171875 -24.53125 L 22.515625 -24.53125 L 22.515625 -9.890625 C 22.515625 -8.367188 22.265625 -6.96875 21.765625 -5.6875 C 21.265625 -4.40625 20.570312 -3.304688 19.6875 -2.390625 C 18.8125 -1.484375 17.765625 -0.769531 16.546875 -0.25 C 15.328125 0.257812 14 0.515625 12.5625 0.515625 Z M 12.5625 0.515625 "/></g></g></g><g fill="#393536" fill-opacity="1"><g transform="translate(94.934514, 259.695874)"><g><path d="M 7.875 -19.515625 L 0.734375 -19.515625 L 0.734375 -24.53125 L 20.359375 -24.53125 L 20.359375 -19.515625 L 13.21875 -19.515625 L 13.21875 0 L 7.875 0 Z M 7.875 -19.515625 "/></g></g></g><g fill="#393536" fill-opacity="1"><g transform="translate(122.862808, 259.695874)"><g><path d="M 13.953125 0.515625 C 12.140625 0.515625 10.460938 0.1875 8.921875 -0.46875 C 7.390625 -1.132812 6.054688 -2.039062 4.921875 -3.1875 C 3.785156 -4.332031 2.894531 -5.679688 2.25 -7.234375 C 1.601562 -8.785156 1.28125 -10.460938 1.28125 -12.265625 C 1.28125 -14.066406 1.601562 -15.75 2.25 -17.3125 C 2.894531 -18.875 3.785156 -20.226562 4.921875 -21.375 C 6.054688 -22.519531 7.390625 -23.414062 8.921875 -24.0625 C 10.460938 -24.71875 12.140625 -25.046875 13.953125 -25.046875 C 15.734375 -25.046875 17.394531 -24.71875 18.9375 -24.0625 C 20.488281 -23.414062 21.832031 -22.519531 22.96875 -21.375 C 24.101562 -20.226562 24.992188 -18.875 25.640625 -17.3125 C 26.285156 -15.75 26.609375 -14.066406 26.609375 -12.265625 C 26.609375 -10.460938 26.285156 -8.785156 25.640625 -7.234375 C 24.992188 -5.679688 24.101562 -4.332031 22.96875 -3.1875 C 21.832031 -2.039062 20.488281 -1.132812 18.9375 -0.46875 C 17.394531 0.1875 15.734375 0.515625 13.953125 0.515625 Z M 13.953125 -4.6875 C 14.972656 -4.6875 15.910156 -4.875 16.765625 -5.25 C 17.617188 -5.632812 18.359375 -6.164062 18.984375 -6.84375 C 19.609375 -7.53125 20.097656 -8.335938 20.453125 -9.265625 C 20.804688 -10.191406 20.984375 -11.191406 20.984375 -12.265625 C 20.984375 -13.335938 20.804688 -14.335938 20.453125 -15.265625 C 20.097656 -16.191406 19.609375 -16.988281 18.984375 -17.65625 C 18.359375 -18.332031 17.617188 -18.863281 16.765625 -19.25 C 15.910156 -19.644531 14.972656 -19.84375 13.953125 -19.84375 C 12.921875 -19.84375 11.976562 -19.644531 11.125 -19.25 C 10.269531 -18.863281 9.53125 -18.332031 8.90625 -17.65625 C 8.289062 -16.988281 7.804688 -16.191406 7.453125 -15.265625 C 7.097656 -14.335938 6.921875 -13.335938 6.921875 -12.265625 C 6.921875 -11.191406 7.097656 -10.191406 7.453125 -9.265625 C 7.804688 -8.335938 8.289062 -7.535156 8.90625 -6.859375 C 9.53125 -6.191406 10.269531 -5.660156 11.125 -5.265625 C 11.976562 -4.878906 12.921875 -4.6875 13.953125 -4.6875 Z M 13.953125 -4.6875 "/></g></g></g><g fill="#393536" fill-opacity="1"><g transform="translate(157.599296, 259.695874)"><g/></g></g><g fill="#393536" fill-opacity="1"><g transform="translate(172.49682, 259.695874)"><g><path d="M 7.875 -19.515625 L 0.734375 -19.515625 L 0.734375 -24.53125 L 20.359375 -24.53125 L 20.359375 -19.515625 L 13.21875 -19.515625 L 13.21875 0 L 7.875 0 Z M 7.875 -19.515625 "/></g></g></g><g fill="#393536" fill-opacity="1"><g transform="translate(200.425108, 259.695874)"><g><path d="M 2.75 -24.53125 L 16.765625 -24.53125 L 16.765625 -19.515625 L 8.09375 -19.515625 L 8.09375 -15.015625 L 14.421875 -15.015625 L 14.421875 -10 L 8.09375 -10 L 8.09375 -5.015625 L 16.953125 -5.015625 L 16.953125 0 L 2.75 0 Z M 2.75 -24.53125 "/></g></g></g><g fill="#393536" fill-opacity="1"><g transform="translate(226.047383, 259.695874)"><g><path d="M 9.328125 0.65625 C 7.429688 0.65625 5.722656 0.226562 4.203125 -0.625 C 2.691406 -1.476562 1.472656 -2.707031 0.546875 -4.3125 L 4.28125 -7.4375 C 5.550781 -5.164062 7.222656 -4.03125 9.296875 -4.03125 C 10.222656 -4.03125 10.972656 -4.253906 11.546875 -4.703125 C 12.117188 -5.148438 12.40625 -5.742188 12.40625 -6.484375 C 12.40625 -7.160156 12.125 -7.75 11.5625 -8.25 C 11 -8.75 9.988281 -9.316406 8.53125 -9.953125 C 6.257812 -10.953125 4.601562 -12.066406 3.5625 -13.296875 C 2.53125 -14.535156 2.015625 -16.007812 2.015625 -17.71875 C 2.015625 -18.789062 2.207031 -19.773438 2.59375 -20.671875 C 2.988281 -21.578125 3.539062 -22.351562 4.25 -23 C 4.957031 -23.65625 5.796875 -24.160156 6.765625 -24.515625 C 7.742188 -24.867188 8.820312 -25.046875 10 -25.046875 C 13.09375 -25.046875 15.710938 -23.710938 17.859375 -21.046875 L 14.3125 -17.828125 C 13.632812 -18.734375 12.953125 -19.398438 12.265625 -19.828125 C 11.578125 -20.253906 10.820312 -20.46875 10 -20.46875 C 9.1875 -20.46875 8.539062 -20.265625 8.0625 -19.859375 C 7.59375 -19.453125 7.359375 -18.910156 7.359375 -18.234375 C 7.359375 -17.472656 7.675781 -16.847656 8.3125 -16.359375 C 8.945312 -15.867188 9.898438 -15.347656 11.171875 -14.796875 C 13.484375 -13.765625 15.15625 -12.617188 16.1875 -11.359375 C 17.226562 -10.109375 17.75 -8.628906 17.75 -6.921875 C 17.75 -5.796875 17.539062 -4.769531 17.125 -3.84375 C 16.71875 -2.914062 16.144531 -2.113281 15.40625 -1.4375 C 14.675781 -0.769531 13.789062 -0.253906 12.75 0.109375 C 11.71875 0.472656 10.578125 0.65625 9.328125 0.65625 Z M 9.328125 0.65625 "/></g></g></g><g fill="#393536" fill-opacity="1"><g transform="translate(252.035701, 259.695874)"><g><path d="M 7.875 -19.515625 L 0.734375 -19.515625 L 0.734375 -24.53125 L 20.359375 -24.53125 L 20.359375 -19.515625 L 13.21875 -19.515625 L 13.21875 0 L 7.875 0 Z M 7.875 -19.515625 "/></g></g></g><g fill="#393536" fill-opacity="1"><g transform="translate(279.963988, 259.695874)"><g><path d="M 2.75 -24.53125 L 8.09375 -24.53125 L 8.09375 0 L 2.75 0 Z M 2.75 -24.53125 "/></g></g></g><g fill="#393536" fill-opacity="1"><g transform="translate(297.643385, 259.695874)"><g><path d="M 2.75 -24.53125 L 16.578125 -24.53125 L 16.578125 -19.515625 L 8.09375 -19.515625 L 8.09375 -13.953125 L 14.234375 -13.953125 L 14.234375 -8.9375 L 8.09375 -8.9375 L 8.09375 0 L 2.75 0 Z M 2.75 -24.53125 "/></g></g></g><g fill="#393536" fill-opacity="1"><g transform="translate(322.167579, 259.695874)"><g><path d="M 7.328125 -8.78125 L -0.1875 -24.53125 L 5.640625 -24.53125 L 10.140625 -14.609375 L 14.75 -24.53125 L 20.28125 -24.53125 L 12.671875 -8.859375 L 12.671875 0 L 7.328125 0 Z M 7.328125 -8.78125 "/></g></g></g></svg>